<?xml version="1.0" encoding="UTF-8"?>
<svg id="Calque_1" data-name="Calque 1" xmlns="http://www.w3.org/2000/svg" viewBox="0 0 2000 2000">
  <path d="M589.86,1654.08c-5.31,4.48-10.47,9.14-15.95,13.4-16.37,12.72-34.77,22.16-52.71,32.34-8.33,4.72-16.77,9.23-25.19,13.79-14.53,7.86-29.09,3.96-37.67-10.16-10.97-18.05-21.87-36.15-32.77-54.25-6.47-10.76-5.36-23.1,2.99-32.54,11.4-12.88,22.4-26.17,34.46-38.41,21.61-21.93,46.07-39.59,77.05-45.97,16.14-3.32,32.15-2.83,47.04,4.88,20.6,10.67,29.98,28.8,31.63,51.22,1.25,16.91-4.37,32.09-13.36,46.17-.73,1.14-1.32,2.36-1.97,3.54l-13.55,15.99Z" style="fill: #fff;"/>
  <path d="M156.39,1721.79c-5.64,6.65-10.84,13.73-17.02,19.83-7.35,7.26-16.76,9-26.34,5.35-21.12-8.04-42.13-16.39-62.99-25.07-12.1-5.03-18.73-18.62-14.64-30.91,9.58-28.75,18.68-57.74,32.2-84.98,9.92-20,23-37.66,42.42-49.56,21.4-13.11,43.79-15.18,66.53-3.85,17.19,8.56,26.28,23.47,29.9,41.88,4.24,21.53,.19,42.15-7.87,62.11-8.75,21.67-21.57,40.87-36.69,58.59-1.86,2.18-3.71,4.37-5.56,6.56,.02,.01,.03,.03,.05,.04Z" style="fill: #fff;"/>
  <path d="M94.85,1833.5c-17.72,20.61-45.08,24.54-66,11.18-19.07-12.18-27.43-34.05-21.21-55.8,1.81-6.33,3.78-12.62,5.95-18.83,4.52-12.93,18.17-21.19,30.93-16.86,17.95,6.1,35.58,13.32,52.85,21.16,10.41,4.72,15.5,17.25,12.15,28.25-3.58,11.75-8.99,22.85-14.67,30.91Z" style="fill: #fff;"/>
  <path d="M504.91,1328.26c-7.91,3.66-15.61,7.9-23.77,10.84-9.72,3.5-18.99,1.12-26.15-6.21-15.79-16.16-31.34-32.57-46.63-49.21-8.87-9.65-9.17-24.77-.3-34.19,20.77-22.07,41.21-44.55,64.92-63.59,17.41-13.98,36.69-24.51,59.32-27.16,24.92-2.91,46.11,4.62,62,24.45,12,14.99,13.98,32.34,9.54,50.57-5.19,21.32-17.54,38.33-33.23,53.06-17.04,15.99-36.74,28.02-57.9,37.76-2.61,1.2-5.2,2.41-7.81,3.62,0,.02,.02,.04,.03,.05Z" style="fill: #fff;"/>
  <path d="M402.14,1403.78c-24.74,11.26-51.22,3.33-64.59-17.58-12.19-19.07-10.59-42.43,4.19-59.55,4.3-4.98,8.73-9.87,13.31-14.59,9.53-9.84,25.39-11.6,35.15-2.3,13.72,13.08,26.69,27.04,39.08,41.4,7.46,8.66,6.82,22.17-.84,30.74-8.19,9.16-17.76,16.96-26.29,21.89Z" style="fill: #fff;"/>
  <path d="M1173.09,1049.62c-8.43-2.19-17.07-3.8-25.25-6.71-9.73-3.47-15.39-11.19-16.26-21.4-1.94-22.51-3.54-45.07-4.79-67.63-.72-13.08,8.64-24.96,21.48-26.61,30.06-3.87,60.12-8.26,90.53-7.91,22.32,.25,43.91,4.35,63.07,16.68,21.1,13.58,32.69,32.85,32.37,58.25-.24,19.2-9.73,33.86-24.73,45.13-17.55,13.17-37.88,18.48-59.36,19.9-23.32,1.54-46.18-1.67-68.71-7.59-2.77-.73-5.55-1.44-8.33-2.16,0,.02,0,.04-.01,.06Z" style="fill: #fff;"/>
  <path d="M1045.74,1042.72c-26.26-7-41.69-29.94-38.74-54.59,2.68-22.47,18.75-39.5,41.05-43.34,6.49-1.12,13.01-2.08,19.55-2.82,13.61-1.55,26.98,7.16,28.62,20.54,2.3,18.82,3.46,37.84,3.91,56.8,.27,11.43-8.81,21.45-20.17,23.21-12.14,1.88-24.49,1.83-34.21,.22Z" style="fill: #fff;"/>
  <path d="M1843.03,983.24c-8.67-.87-17.46-1.15-25.98-2.77-10.15-1.94-16.92-8.71-19.34-18.66-5.36-21.95-10.38-44-15.07-66.1-2.72-12.82,4.72-25.98,17.16-29.58,29.11-8.42,58.16-17.35,88.25-21.66,22.1-3.16,44.06-2.41,64.88,6.84,22.93,10.19,37.33,27.46,40.9,52.62,2.7,19.01-4.44,34.95-17.54,48.38-15.33,15.7-34.61,24.06-55.62,28.74-22.81,5.08-45.89,5.4-69.06,3-2.85-.3-5.71-.58-8.56-.86,0,.02,0,.04,0,.06Z" style="fill: #fff;"/>
  <path d="M1716.13,995.89c-27.02-2.9-45.78-23.22-46.63-48.03-.78-22.62,12.49-41.91,33.94-49.11,6.24-2.1,12.54-4.04,18.89-5.78,13.21-3.61,27.76,2.95,31.42,15.92,5.15,18.25,9.2,36.86,12.54,55.53,2.01,11.25-5.42,22.55-16.38,26.02-11.71,3.71-23.92,5.55-33.78,5.44Z" style="fill: #fff;"/>
  <path d="M350.18,1754.21c-24.79-21.12-27.45-53.66-7.63-74.02,7.82-8.04,17.86-14.35,27.8-19.78,10.8-5.89,25-1.37,31.64,9.06,9.34,14.67,18.41,29.54,27.02,44.64,6.95,12.2,2.42,27.73-9.76,34.77-6.99,4.04-14.15,7.97-21.63,10.92-18.25,7.19-35.14,4-47.43-5.59Z" style="fill: #fff;"/>
  <path d="M1052.1,1361.31c-6.66,1.95-13.27,4.12-20,5.8-20.12,5-40.77,6.19-61.29,8.24-9.52,.95-19.07,1.65-28.62,2.41-16.46,1.3-28.2-8.15-30.34-24.53-2.73-20.95-5.37-41.91-8.01-62.87-1.57-12.46,4.45-23.3,15.91-28.54,15.64-7.16,31.07-14.87,47.05-21.17,28.64-11.3,58.16-17.56,89.06-10.85,16.1,3.49,30.54,10.42,41.04,23.5,14.52,18.1,15.76,38.47,8.2,59.64-5.7,15.97-16.98,27.58-30.9,36.82-1.12,.75-2.16,1.62-3.24,2.44-6.29,3.04-12.58,6.09-18.86,9.13Z" style="fill: #fff;"/>
  <path d="M792.41,1355.88c-14.12-29.34-3.39-60.18,22.98-70.78,10.41-4.18,22.14-5.89,33.43-6.83,12.26-1.02,23.42,8.87,25.27,21.09,2.6,17.2,4.88,34.46,6.64,51.76,1.42,13.97-9.01,26.34-23,27.84-8.02,.86-16.16,1.56-24.2,1.23-19.6-.81-33.75-10.57-41.12-24.31Z" style="fill: #fff;"/>
  <path d="M1643.26,1335.35c-6.85-1.15-13.74-2.07-20.53-3.5-20.29-4.26-39.39-12.19-58.75-19.29-8.99-3.3-17.89-6.82-26.81-10.3-15.39-6-21.83-19.63-16.62-35.3,6.67-20.04,13.43-40.06,20.19-60.08,4.02-11.9,14.15-19.03,26.76-18.76,17.2,.37,34.45,.16,51.58,1.45,30.7,2.31,60,9.54,84.89,29.04,12.97,10.16,22.94,22.69,26.69,39.04,5.19,22.62-2.58,41.49-18.61,57.25-12.09,11.89-27.3,17.42-43.86,19.67-1.34,.18-2.65,.52-3.97,.78-6.99,0-13.97,0-20.96,0Z" style="fill: #fff;"/>
  <path d="M1411.89,1217.29c.08-32.56,23.17-55.64,51.53-53.69,11.19,.77,22.5,4.34,33.06,8.42,11.48,4.43,17.21,18.19,13.55,29.99-5.16,16.61-10.62,33.14-16.58,49.48-4.81,13.19-19.59,19.78-32.83,15.04-7.6-2.72-15.23-5.64-22.32-9.44-17.29-9.27-25.77-24.22-26.41-39.79Z" style="fill: #fff;"/>
</svg>