<svg width="108" height="15" viewBox="0 0 108 15" fill="none" xmlns="http://www.w3.org/2000/svg">
<g clip-path="url(#clip0_34_722)">
<path d="M53.85 0C54.03 0.23 54.17 0.46 54.31 0.7C54.44 0.94 54.57 1.19 54.67 1.45C54.87 1.96 55.01 2.51 55.04 3.07C55.07 3.63 54.98 4.2 54.79 4.72C54.6 5.24 54.35 5.74 54.01 6.18C53.34 7.06 52.4 7.74 51.33 8.04C50.26 8.34 49.1 8.29 48.08 7.82C47.58 7.57 47.14 7.2 46.8 6.76C46.47 6.31 46.24 5.79 46.15 5.24C46.05 4.69 46.1 4.13 46.26 3.59C46.44 3.06 46.8 2.58 47.27 2.28C47.74 1.98 48.31 1.83 48.87 1.9C49.14 1.93 49.42 2 49.67 2.14C49.92 2.28 50.12 2.48 50.28 2.71C50.59 3.18 50.65 3.8 50.42 4.31C50.3 4.56 50.08 4.77 49.83 4.89C49.58 5.01 49.28 5.03 49.02 4.96C49 4.96 48.98 4.93 48.99 4.91C48.99 4.89 49.02 4.88 49.04 4.88C49.29 4.94 49.56 4.91 49.79 4.79C50.02 4.68 50.2 4.48 50.3 4.25C50.5 3.78 50.42 3.21 50.14 2.8C50 2.59 49.81 2.42 49.59 2.3C49.37 2.18 49.12 2.12 48.86 2.1C48.35 2.05 47.84 2.2 47.42 2.48C47 2.76 46.68 3.18 46.53 3.66C46.39 4.14 46.35 4.67 46.45 5.17C46.55 5.67 46.76 6.15 47.07 6.55C47.38 6.95 47.79 7.28 48.24 7.5C48.36 7.55 48.47 7.6 48.59 7.64C48.71 7.67 48.83 7.72 48.96 7.74L49.34 7.81L49.72 7.84C50.23 7.86 50.75 7.81 51.24 7.67C52.23 7.39 53.1 6.75 53.71 5.94C54.02 5.53 54.25 5.07 54.42 4.58C54.6 4.1 54.67 3.6 54.64 3.09C54.58 2.08 54.14 1.08 53.54 0.28L53.88 0.26C53.33 1.13 52.98 2.13 52.96 3.16C52.96 3.42 52.96 3.67 53 3.92C53.02 4.04 53.04 4.17 53.07 4.29L53.18 4.66C53.34 5.15 53.58 5.6 53.89 6.01C54.51 6.82 55.4 7.42 56.38 7.69C56.87 7.82 57.39 7.87 57.9 7.84C58.03 7.83 58.16 7.82 58.28 7.8L58.66 7.73C58.79 7.71 58.9 7.66 59.03 7.63C59.15 7.58 59.27 7.54 59.38 7.48C59.83 7.26 60.23 6.93 60.54 6.53C60.84 6.12 61.05 5.65 61.15 5.15C61.25 4.65 61.21 4.12 61.06 3.64C60.91 3.16 60.59 2.74 60.17 2.46C59.75 2.18 59.24 2.04 58.73 2.09C58.48 2.11 58.23 2.17 58.01 2.29C57.79 2.41 57.6 2.58 57.46 2.79C57.18 3.2 57.1 3.77 57.3 4.24C57.4 4.47 57.59 4.66 57.81 4.77C58.04 4.88 58.3 4.91 58.56 4.86C58.58 4.86 58.6 4.86 58.61 4.89C58.61 4.91 58.61 4.93 58.58 4.94C58.31 5.01 58.02 4.99 57.77 4.87C57.52 4.75 57.3 4.55 57.18 4.3C56.95 3.79 57.01 3.17 57.32 2.7C57.47 2.46 57.68 2.26 57.92 2.12C58.16 1.98 58.44 1.91 58.72 1.88C59.27 1.81 59.85 1.95 60.32 2.25C60.8 2.55 61.16 3.02 61.34 3.55C61.51 4.08 61.56 4.65 61.46 5.2C61.37 5.75 61.15 6.27 60.82 6.72C60.49 7.17 60.05 7.54 59.55 7.79C59.43 7.85 59.29 7.9 59.17 7.96C59.04 8 58.9 8.05 58.77 8.08L58.36 8.16C58.22 8.18 58.09 8.19 57.95 8.2C57.4 8.24 56.84 8.18 56.31 8.05C55.24 7.76 54.28 7.12 53.6 6.24C53.27 5.8 53.01 5.3 52.83 4.78L52.71 4.39C52.67 4.25 52.64 4.11 52.62 3.97C52.58 3.69 52.56 3.42 52.57 3.14C52.59 2.03 52.96 0.95 53.55 0.03" fill="black"/>
<path d="M49 9.34C49.27 9.27 49.56 9.29 49.81 9.41C50.06 9.53 50.28 9.73 50.4 9.98C50.63 10.49 50.57 11.11 50.26 11.58C50.11 11.82 49.9 12.02 49.66 12.16C49.42 12.3 49.14 12.37 48.86 12.4C48.31 12.47 47.73 12.33 47.26 12.03C46.78 11.73 46.42 11.26 46.24 10.73C46.07 10.2 46.02 9.63 46.12 9.08C46.21 8.53 46.43 8.01 46.76 7.56C47.09 7.11 47.53 6.74 48.03 6.49C48.15 6.43 48.29 6.38 48.41 6.32C48.54 6.28 48.68 6.23 48.81 6.2L49.22 6.12C49.36 6.1 49.49 6.09 49.63 6.08C50.18 6.04 50.74 6.1 51.27 6.23C52.34 6.52 53.3 7.16 53.98 8.04C54.31 8.48 54.57 8.98 54.75 9.5L54.87 9.89C54.91 10.03 54.94 10.17 54.96 10.31C55 10.59 55.02 10.86 55.01 11.14C54.99 12.25 54.62 13.33 54.03 14.25L53.87 14.5L53.69 14.27C53.51 14.04 53.37 13.81 53.23 13.57C53.1 13.33 52.97 13.08 52.87 12.82C52.67 12.31 52.53 11.76 52.5 11.2C52.47 10.64 52.56 10.07 52.75 9.55C52.94 9.03 53.19 8.53 53.53 8.09C54.2 7.21 55.14 6.53 56.21 6.23C57.28 5.93 58.44 5.98 59.46 6.45C59.96 6.7 60.4 7.07 60.74 7.51C61.07 7.96 61.3 8.48 61.39 9.03C61.49 9.58 61.44 10.15 61.28 10.68C61.1 11.21 60.74 11.69 60.27 11.99C59.8 12.29 59.23 12.44 58.67 12.37C58.4 12.34 58.12 12.27 57.87 12.13C57.62 11.99 57.42 11.79 57.26 11.56C56.95 11.09 56.89 10.47 57.12 9.96C57.24 9.71 57.46 9.5 57.71 9.38C57.96 9.26 58.26 9.24 58.52 9.31C58.54 9.31 58.56 9.34 58.55 9.36C58.55 9.38 58.52 9.39 58.5 9.39C58.25 9.33 57.98 9.36 57.75 9.48C57.52 9.59 57.34 9.79 57.24 10.02C57.04 10.49 57.12 11.06 57.4 11.47C57.68 11.9 58.17 12.14 58.68 12.17C59.19 12.22 59.7 12.07 60.12 11.79C60.54 11.51 60.86 11.09 61.01 10.61C61.15 10.13 61.19 9.6 61.09 9.1C60.99 8.6 60.78 8.12 60.47 7.72C60.16 7.32 59.75 6.99 59.3 6.77C59.18 6.72 59.07 6.67 58.95 6.63C58.83 6.6 58.71 6.55 58.58 6.53L58.2 6.46L57.82 6.43C57.31 6.41 56.79 6.46 56.3 6.6C55.31 6.88 54.44 7.52 53.83 8.33C53.52 8.74 53.29 9.2 53.12 9.69C52.94 10.17 52.87 10.67 52.9 11.18C52.96 12.19 53.4 13.19 54 13.99L53.66 14.01C54.21 13.14 54.56 12.14 54.58 11.11C54.58 10.85 54.58 10.6 54.54 10.35C54.52 10.23 54.5 10.1 54.47 9.98L54.36 9.61C54.2 9.12 53.96 8.67 53.65 8.26C53.03 7.45 52.14 6.85 51.16 6.58C50.67 6.45 50.15 6.4 49.64 6.43C49.51 6.44 49.38 6.45 49.26 6.47L48.88 6.54C48.75 6.56 48.64 6.61 48.51 6.64C48.39 6.69 48.27 6.73 48.16 6.79C47.71 7.01 47.31 7.34 47 7.74C46.7 8.15 46.49 8.62 46.39 9.12C46.29 9.62 46.33 10.15 46.48 10.63C46.63 11.11 46.95 11.53 47.38 11.81C47.8 12.09 48.31 12.23 48.82 12.18C49.07 12.16 49.32 12.1 49.54 11.98C49.76 11.86 49.95 11.69 50.09 11.48C50.37 11.07 50.45 10.5 50.25 10.03C50.15 9.8 49.96 9.61 49.73 9.5C49.5 9.39 49.24 9.36 48.98 9.41C48.96 9.41 48.94 9.41 48.93 9.38C48.93 9.36 48.93 9.34 48.96 9.33L49 9.34Z" fill="black"/>
<path d="M60.28 6.82L106.49 7.07C106.49 7.07 106.56 7.1 106.56 7.14C106.56 7.18 106.53 7.21 106.49 7.21L60.28 7.46C60.1 7.46 59.96 7.32 59.96 7.14C59.96 6.96 60.1 6.82 60.28 6.82Z" fill="black"/>
<path d="M47.32 7.46L0.990044 7.21C0.990044 7.21 0.920044 7.18 0.920044 7.14C0.920044 7.1 0.950044 7.07 0.990044 7.07L47.32 6.82C47.5 6.82 47.64 6.96 47.64 7.14C47.64 7.32 47.5 7.46 47.32 7.46Z" fill="black"/>
<path d="M0.99 8.13C1.53676 8.13 1.98 7.68676 1.98 7.14C1.98 6.59324 1.53676 6.15 0.99 6.15C0.443238 6.15 0 6.59324 0 7.14C0 7.68676 0.443238 8.13 0.99 8.13Z" fill="black"/>
<path d="M106.49 8.13C107.037 8.13 107.48 7.68676 107.48 7.14C107.48 6.59324 107.037 6.15 106.49 6.15C105.943 6.15 105.5 6.59324 105.5 7.14C105.5 7.68676 105.943 8.13 106.49 8.13Z" fill="black"/>
<path d="M49.22 4.98C49.5403 4.98 49.8 4.72032 49.8 4.4C49.8 4.07967 49.5403 3.82 49.22 3.82C48.8997 3.82 48.64 4.07967 48.64 4.4C48.64 4.72032 48.8997 4.98 49.22 4.98Z" fill="black"/>
<path d="M58.9799 4.38C58.9799 4.7 58.7199 4.96 58.3999 4.96C58.0799 4.96 57.8199 4.7 57.8199 4.38C57.8199 4.06 58.0799 3.8 58.3999 3.8C58.7199 3.8 58.9799 4.06 58.9799 4.38Z" fill="black"/>
<path d="M58.9799 9.89C58.9799 10.21 58.7199 10.47 58.3999 10.47C58.0799 10.47 57.8199 10.21 57.8199 9.89C57.8199 9.57 58.0799 9.31 58.3999 9.31C58.7199 9.31 58.9799 9.57 58.9799 9.89Z" fill="black"/>
<path d="M49.8 9.89C49.8 10.21 49.54 10.47 49.22 10.47C48.9 10.47 48.64 10.21 48.64 9.89C48.64 9.57 48.9 9.31 49.22 9.31C49.54 9.31 49.8 9.57 49.8 9.89Z" fill="black"/>
</g>
<defs>
<clipPath id="clip0_34_722">
<rect width="107.48" height="14.51" fill="white"/>
</clipPath>
</defs>
</svg>
