<svg width="213" height="213" viewBox="0 0 213 213" fill="none" xmlns="http://www.w3.org/2000/svg">
<g clip-path="url(#clip0_48_2)">
<path d="M1.32 0H212.54V211.22C212.54 211.95 211.95 212.54 211.22 212.54C210.49 212.54 209.9 211.95 209.9 211.22V2.63H1.32C0.59 2.63 0 2.04 0 1.31C0 0.58 0.59 0 1.32 0Z" fill="url(#paint0_linear_48_2)"/>
<path d="M21.18 11.16H175C175.73 11.16 176.32 11.75 176.32 12.48C176.32 13.21 175.73 13.8 175 13.8H21.18C20.45 13.8 19.86 13.21 19.86 12.48C19.86 11.75 20.45 11.16 21.18 11.16Z" fill="url(#paint1_linear_48_2)"/>
<path d="M200.36 35.12C200.97 35.12 201.46 35.61 201.46 36.22V190.05C201.46 190.66 200.97 191.15 200.36 191.15C199.75 191.15 199.26 190.66 199.26 190.05V36.22C199.26 35.61 199.75 35.12 200.36 35.12Z" fill="url(#paint2_linear_48_2)"/>
<path d="M184.77 38.92C184.94 38.74 185.11 38.57 185.29 38.4C187 36.81 189.38 36.03 191.8 36.26C192.28 36.31 192.75 36.38 193.2 36.49C195.96 37.13 198.07 38.88 198.9 41.34C199.33 42.61 199.38 43.95 199.09 45.21C198.78 46.56 198.06 47.82 197 48.8C195.83 49.88 194.23 50.41 192.59 50.28C192.23 50.25 191.89 50.2 191.56 50.12C189.67 49.68 188.2 48.47 187.62 46.76C187.31 45.86 187.27 44.92 187.48 44.03C187.7 43.08 188.2 42.2 188.94 41.52C190 40.53 191.45 40.2 192.76 40.51C193.54 40.69 194.28 41.1 194.87 41.73C195.15 42.03 195.24 42.43 195.15 42.8C195.1 43.02 194.98 43.23 194.81 43.39C194.51 43.67 194.11 43.76 193.74 43.67C193.52 43.62 193.31 43.5 193.15 43.33C192.89 43.05 192.57 42.87 192.23 42.79C191.65 42.66 191.02 42.8 190.55 43.24C190.16 43.6 189.9 44.06 189.78 44.56C189.67 45.03 189.69 45.52 189.85 45.99C190.17 46.9 190.93 47.55 192.09 47.82C192.31 47.87 192.55 47.91 192.8 47.93C193.79 48.01 194.74 47.7 195.41 47.07C196.12 46.41 196.59 45.57 196.8 44.67C197 43.83 196.96 42.94 196.68 42.09C196.11 40.42 194.73 39.26 192.71 38.78C192.36 38.7 191.98 38.64 191.59 38.6C189.79 38.43 188.14 38.97 186.9 40.12C186.76 40.25 186.63 40.38 186.5 40.52C185.65 41.43 185.09 42.5 184.82 43.65C184.57 44.72 184.58 45.87 184.86 47.02C185.49 49.56 187.32 51.59 189.76 52.45L190.06 52.55C190.52 52.73 191.06 52.89 191.64 53.03C193.37 53.43 195.52 53.63 197.59 53.55C199.44 53.47 201.05 53.64 202.45 53.96C207.65 55.17 209.84 58.54 210.15 59.07C210.23 59.17 210.3 59.28 210.37 59.39C211.09 60.54 211.36 61.9 211.16 63.25C211.14 63.4 211.11 63.55 211.08 63.69C210.77 65.01 210.01 66.18 208.9 66.99C207.72 67.86 206.27 68.11 204.94 67.8C203.88 67.55 202.9 66.95 202.2 66.02C201.52 65.11 201.27 63.92 201.52 62.78L201.54 62.69C201.9 61.14 202.96 59.98 204.39 59.68C204.91 59.57 205.43 59.58 205.92 59.69C206.71 59.88 207.44 60.34 207.94 61.02C208.15 61.31 208.21 61.67 208.14 61.99C208.08 62.25 207.92 62.5 207.69 62.67C207.4 62.88 207.05 62.94 206.72 62.87C206.46 62.81 206.21 62.66 206.04 62.42C205.88 62.2 205.64 62.05 205.38 61.99C205.22 61.95 205.05 61.95 204.88 61.99C204.63 62.04 204.42 62.17 204.24 62.37C204.06 62.57 203.91 62.86 203.83 63.23V63.28H203.82C203.72 63.76 203.82 64.27 204.08 64.61C204.44 65.08 204.93 65.39 205.47 65.51C206.15 65.67 206.89 65.54 207.5 65.1C208.15 64.62 208.6 63.94 208.78 63.16C208.8 63.07 208.82 62.99 208.83 62.9C208.97 62.01 208.75 61.13 208.22 60.41L208.16 60.31V60.3C208.09 60.19 206.41 57.31 201.93 56.26C200.73 55.98 199.33 55.83 197.7 55.91C195.39 56 193.07 55.79 191.14 55.34C190.46 55.18 189.84 54.99 189.27 54.78L188.99 54.68C185.79 53.56 183.39 50.9 182.58 47.59C182.21 46.07 182.2 44.55 182.53 43.12C182.89 41.57 183.65 40.13 184.79 38.92H184.77Z" fill="url(#paint3_linear_48_2)"/>
<path d="M172.43 27.28C172.61 27.11 172.78 26.93 172.94 26.75C174.5 25.01 175.22 22.62 174.95 20.2C174.89 19.72 174.81 19.25 174.69 18.8C173.99 16.06 172.2 13.98 169.72 13.2C168.44 12.79 167.1 12.77 165.85 13.09C164.51 13.43 163.26 14.17 162.3 15.25C161.24 16.44 160.74 18.05 160.91 19.69C160.95 20.04 161.01 20.39 161.09 20.72C161.57 22.6 162.81 24.04 164.53 24.59C165.43 24.88 166.38 24.9 167.26 24.67C168.2 24.43 169.07 23.91 169.74 23.16C170.7 22.08 171 20.63 170.67 19.32C170.47 18.54 170.05 17.81 169.4 17.24C169.1 16.97 168.69 16.88 168.32 16.98C168.1 17.04 167.89 17.16 167.73 17.34C167.46 17.64 167.37 18.05 167.47 18.42C167.53 18.64 167.65 18.85 167.83 19.01C168.11 19.26 168.3 19.58 168.39 19.92C168.54 20.5 168.4 21.13 167.98 21.61C167.63 22.01 167.17 22.28 166.68 22.4C166.22 22.52 165.72 22.51 165.25 22.36C164.33 22.06 163.67 21.31 163.37 20.16C163.31 19.94 163.27 19.7 163.24 19.45C163.14 18.46 163.43 17.51 164.04 16.82C164.68 16.1 165.51 15.61 166.41 15.38C167.25 15.17 168.14 15.18 168.99 15.45C170.67 15.98 171.86 17.34 172.38 19.36C172.47 19.71 172.54 20.09 172.58 20.48C172.79 22.28 172.28 23.94 171.16 25.2C171.03 25.34 170.9 25.48 170.77 25.61C169.88 26.48 168.82 27.06 167.67 27.36C166.6 27.63 165.46 27.65 164.3 27.39C161.74 26.82 159.68 25.03 158.77 22.6L158.66 22.31C158.47 21.84 158.3 21.31 158.16 20.73C157.72 19.01 157.48 16.87 157.52 14.79C157.57 12.94 157.36 11.33 157.01 9.94001C155.69 4.76001 152.28 2.64001 151.75 2.34001C151.64 2.27001 151.54 2.20001 151.43 2.13001C150.27 1.44001 148.9 1.19001 147.55 1.42001C147.4 1.45001 147.26 1.48001 147.11 1.51001C145.79 1.85001 144.64 2.63001 143.85 3.76001C143.01 4.96001 142.79 6.41001 143.12 7.73001C143.39 8.78001 144.01 9.75001 144.96 10.43C145.88 11.09 147.08 11.31 148.21 11.05L148.29 11.03C149.83 10.64 150.97 9.56001 151.24 8.12001C151.34 7.60001 151.32 7.08001 151.2 6.59001C151 5.80001 150.52 5.09001 149.83 4.60001C149.54 4.39001 149.18 4.34001 148.86 4.42001C148.6 4.49001 148.36 4.65001 148.19 4.88001C147.98 5.17001 147.93 5.53001 148.01 5.85001C148.08 6.11001 148.23 6.35001 148.47 6.52001C148.69 6.68001 148.85 6.91001 148.92 7.17001C148.96 7.33001 148.97 7.50001 148.93 7.67001C148.88 7.92001 148.76 8.13001 148.56 8.32001C148.36 8.50001 148.07 8.66001 147.71 8.75001H147.66V8.76001C147.18 8.87001 146.67 8.78001 146.32 8.52001C145.84 8.17001 145.53 7.69001 145.39 7.15001C145.22 6.47001 145.33 5.73001 145.76 5.12001C146.23 4.46001 146.9 3.99001 147.67 3.80001C147.75 3.78001 147.84 3.76001 147.93 3.74001C148.82 3.59001 149.7 3.78001 150.43 4.30001H150.44L150.53 4.36001C150.65 4.43001 153.56 6.05001 154.69 10.5C154.99 11.69 155.17 13.09 155.13 14.72C155.09 17.03 155.35 19.35 155.84 21.27C156.01 21.94 156.21 22.57 156.44 23.13L156.54 23.4C157.73 26.58 160.43 28.92 163.76 29.66C165.29 30 166.81 29.98 168.23 29.62C169.77 29.23 171.19 28.43 172.38 27.28H172.43Z" fill="url(#paint4_linear_48_2)"/>
<path d="M180.97 0.809981C180.72 0.859981 180.47 0.929981 180.22 0.999981C177.85 1.66998 175.86 3.38998 174.75 5.69998C174.53 6.15998 174.34 6.61998 174.19 7.08998C173.27 9.91998 173.7 12.77 175.46 14.87C176.37 15.95 177.55 16.72 178.84 17.14C180.23 17.59 181.75 17.63 183.21 17.21C184.82 16.75 186.17 15.59 186.94 14.04C187.11 13.7 187.24 13.36 187.36 13.02C187.99 11.08 187.7 9.09998 186.48 7.63998C185.84 6.86998 185.01 6.32998 184.1 6.02998C183.13 5.70998 182.06 5.67998 181.04 5.97998C179.57 6.39998 178.49 7.51998 178.05 8.86998C177.79 9.66998 177.76 10.57 178.01 11.44C178.13 11.85 178.44 12.16 178.82 12.28C179.05 12.35 179.3 12.36 179.54 12.29C179.95 12.17 180.26 11.86 180.38 11.48C180.45 11.25 180.46 11 180.39 10.76C180.28 10.38 180.29 9.98998 180.41 9.63998C180.6 9.03998 181.08 8.54998 181.73 8.36998C182.27 8.21998 182.83 8.22998 183.34 8.39998C183.82 8.55998 184.25 8.83998 184.59 9.23998C185.24 10.03 185.41 11.06 185.02 12.25C184.95 12.48 184.85 12.71 184.73 12.95C184.27 13.89 183.46 14.57 182.54 14.83C181.56 15.11 180.55 15.08 179.62 14.78C178.76 14.5 177.97 13.98 177.36 13.27C176.16 11.85 175.87 9.96998 176.54 7.88998C176.66 7.52998 176.81 7.15998 176.99 6.77998C177.82 5.05998 179.2 3.86998 180.91 3.37998C181.1 3.31998 181.3 3.27998 181.49 3.23998C182.77 2.96998 184.04 3.03998 185.23 3.42998C186.33 3.78998 187.36 4.41998 188.25 5.29998C190.2 7.24998 191.03 9.99998 190.47 12.67L190.4 12.99C190.31 13.52 190.16 14.08 189.97 14.68C189.39 16.45 188.4 18.5 187.2 20.32C186.12 21.94 185.39 23.48 184.93 24.92C183.19 30.27 185.04 34.07 185.34 34.64C185.39 34.77 185.45 34.89 185.51 35.01C186.16 36.28 187.23 37.27 188.56 37.82C188.71 37.88 188.85 37.93 189 37.98C190.36 38.42 191.83 38.37 193.16 37.81C194.58 37.22 195.6 36.05 196.04 34.68C196.39 33.59 196.38 32.38 195.92 31.24C195.47 30.14 194.53 29.26 193.37 28.86L193.28 28.83C191.69 28.31 190.07 28.64 189.01 29.76C188.63 30.16 188.35 30.64 188.19 31.15C187.92 31.97 187.95 32.87 188.29 33.69C188.44 34.04 188.72 34.29 189.05 34.4C189.32 34.49 189.63 34.48 189.91 34.36C190.26 34.22 190.51 33.93 190.61 33.6C190.7 33.33 190.69 33.03 190.58 32.74C190.47 32.47 190.46 32.18 190.55 31.91C190.6 31.74 190.69 31.59 190.82 31.45C191 31.25 191.23 31.13 191.51 31.08C191.79 31.03 192.13 31.05 192.51 31.18L192.57 31.2C193.06 31.37 193.46 31.74 193.63 32.16C193.86 32.74 193.87 33.35 193.69 33.9C193.46 34.6 192.94 35.2 192.22 35.5C191.43 35.83 190.57 35.86 189.77 35.6C189.68 35.57 189.59 35.54 189.51 35.5C188.63 35.14 187.96 34.47 187.6 33.6L187.55 33.49V33.47C187.49 33.35 185.81 30.26 187.3 25.66C187.7 24.43 188.33 23.09 189.28 21.66C190.61 19.63 191.69 17.42 192.33 15.43C192.56 14.74 192.73 14.07 192.84 13.44L192.9 13.14C193.63 9.64998 192.54 6.03998 190 3.50998C188.83 2.34998 187.47 1.50998 186 1.02998C184.41 0.50998 182.7 0.41998 180.99 0.77998L180.97 0.809981Z" fill="url(#paint5_linear_48_2)"/>
<path d="M212.08 29.91C212.04 30.16 212 30.42 211.94 30.67C211.43 33.08 209.85 35.18 207.62 36.44C207.18 36.69 206.72 36.91 206.27 37.09C203.51 38.2 200.63 37.96 198.43 36.34C197.29 35.5 196.44 34.38 195.93 33.12C195.39 31.77 195.24 30.25 195.56 28.77C195.91 27.13 196.98 25.71 198.47 24.84C198.8 24.65 199.13 24.49 199.46 24.36C201.35 23.6 203.35 23.76 204.89 24.88C205.7 25.47 206.3 26.26 206.66 27.15C207.04 28.1 207.14 29.16 206.92 30.2C206.6 31.69 205.55 32.85 204.23 33.37C203.44 33.68 202.56 33.78 201.67 33.59C201.25 33.5 200.93 33.21 200.78 32.84C200.69 32.62 200.67 32.37 200.72 32.12C200.81 31.7 201.1 31.38 201.47 31.23C201.69 31.14 201.94 31.12 202.19 31.17C202.58 31.25 202.96 31.21 203.31 31.08C203.89 30.85 204.35 30.34 204.49 29.68C204.61 29.13 204.55 28.58 204.35 28.08C204.16 27.61 203.85 27.2 203.43 26.89C202.6 26.29 201.56 26.2 200.39 26.66C200.17 26.75 199.94 26.86 199.71 26.99C198.81 27.51 198.18 28.36 197.98 29.3C197.76 30.29 197.86 31.3 198.23 32.21C198.57 33.05 199.13 33.8 199.89 34.36C201.39 35.46 203.28 35.63 205.32 34.82C205.68 34.68 206.03 34.5 206.39 34.3C208.05 33.36 209.14 31.89 209.51 30.16C209.55 29.96 209.59 29.77 209.61 29.57C209.79 28.28 209.64 27.01 209.17 25.86C208.74 24.79 208.04 23.8 207.1 22.98C205.03 21.16 202.22 20.52 199.6 21.26L199.28 21.35H199.27C198.76 21.48 198.21 21.66 197.62 21.9C195.89 22.59 193.91 23.72 192.17 25.04C190.63 26.22 189.13 27.05 187.73 27.62C182.51 29.71 178.59 28.13 178.01 27.86C177.88 27.82 177.75 27.77 177.63 27.71C176.32 27.15 175.26 26.15 174.62 24.85C174.55 24.71 174.49 24.56 174.43 24.42C173.9 23.09 173.86 21.63 174.32 20.26C174.81 18.8 175.92 17.71 177.25 17.18C178.31 16.75 179.52 16.68 180.69 17.06C181.82 17.43 182.76 18.32 183.23 19.44L183.26 19.53C183.89 21.08 183.67 22.72 182.62 23.85C182.24 24.26 181.79 24.56 181.29 24.76C180.49 25.08 179.59 25.12 178.75 24.83C178.4 24.71 178.12 24.44 178 24.12C177.89 23.86 177.88 23.55 177.98 23.26C178.1 22.9 178.37 22.64 178.69 22.51C178.95 22.4 179.26 22.39 179.55 22.49C179.82 22.58 180.12 22.57 180.38 22.47C180.54 22.4 180.69 22.3 180.82 22.17C181 21.97 181.11 21.74 181.14 21.45C181.17 21.17 181.12 20.83 180.98 20.46L180.96 20.41C180.76 19.94 180.36 19.57 179.93 19.42C179.34 19.23 178.73 19.26 178.19 19.48C177.51 19.75 176.94 20.31 176.69 21.06C176.42 21.87 176.44 22.73 176.75 23.51C176.78 23.6 176.82 23.68 176.86 23.77C177.28 24.62 178 25.25 178.89 25.55H178.9L179 25.6C179.13 25.66 182.32 27.12 186.81 25.32C188.01 24.84 189.31 24.12 190.67 23.08C192.61 21.61 194.73 20.39 196.68 19.61C197.36 19.34 198.01 19.12 198.63 18.97L198.93 18.89C202.37 17.93 206.04 18.77 208.74 21.14C209.98 22.22 210.91 23.53 211.48 24.97C212.1 26.52 212.31 28.22 212.07 29.95L212.08 29.91Z" fill="url(#paint6_linear_48_2)"/>
<path d="M181.27 31.2001C181.66 30.9801 182.07 30.7801 182.48 30.6201C182.33 31.0001 182.15 31.4001 181.93 31.7801C181.58 32.4101 181.13 32.9801 180.64 33.3101C180.49 33.4101 180.37 33.4401 180.26 33.4401C180.1 33.4401 179.95 33.3601 179.84 33.2601C179.73 33.1501 179.65 33.0001 179.66 32.8401C179.66 32.7301 179.69 32.6101 179.79 32.4601C180.1 31.9901 180.65 31.5601 181.28 31.2001H181.27Z" fill="url(#paint7_linear_48_2)"/>
<path d="M178.44 34.65C178.94 35.15 179.59 35.42 180.25 35.41C180.76 35.41 181.28 35.25 181.74 34.94C182.93 34.14 183.71 32.76 184.22 31.58C184.73 30.39 184.95 29.39 184.98 29.29C184.99 29.22 185 29.16 185 29.09C185 28.81 184.88 28.57 184.7 28.39C184.52 28.21 184.28 28.09 184 28.09C183.94 28.09 183.87 28.09 183.81 28.11C183.7 28.13 182.7 28.36 181.52 28.86C180.34 29.37 178.96 30.15 178.16 31.34C177.85 31.8 177.69 32.32 177.69 32.83C177.69 33.49 177.95 34.14 178.45 34.64L178.44 34.65ZM179.65 32.83C179.65 32.72 179.68 32.6 179.78 32.45C180.09 31.98 180.64 31.55 181.27 31.19C181.66 30.97 182.07 30.77 182.48 30.61C182.33 30.99 182.15 31.39 181.93 31.77C181.58 32.4 181.13 32.97 180.64 33.3C180.49 33.4 180.37 33.43 180.26 33.43C180.1 33.43 179.95 33.35 179.84 33.25C179.73 33.14 179.65 32.99 179.66 32.83H179.65Z" fill="url(#paint8_linear_48_2)"/>
<path d="M172.77 40.95C172.38 41.17 171.97 41.37 171.56 41.53C171.71 41.15 171.89 40.75 172.11 40.37C172.46 39.74 172.91 39.17 173.4 38.84C173.55 38.74 173.67 38.71 173.78 38.71C173.94 38.71 174.09 38.79 174.2 38.89C174.31 39 174.39 39.15 174.38 39.31C174.38 39.42 174.35 39.54 174.25 39.69C173.94 40.16 173.39 40.59 172.76 40.95H172.77Z" fill="url(#paint9_linear_48_2)"/>
<path d="M175.6 37.5C175.1 37 174.45 36.73 173.79 36.74C173.28 36.74 172.76 36.9 172.3 37.21C171.11 38.01 170.33 39.39 169.82 40.57C169.31 41.76 169.09 42.76 169.06 42.86C169.05 42.93 169.04 42.99 169.04 43.06C169.04 43.34 169.16 43.58 169.34 43.76C169.52 43.94 169.76 44.06 170.04 44.06C170.1 44.06 170.17 44.06 170.23 44.04C170.34 44.02 171.34 43.79 172.52 43.29C173.7 42.78 175.08 42 175.88 40.81C176.19 40.35 176.35 39.83 176.35 39.32C176.35 38.66 176.09 38.01 175.59 37.51L175.6 37.5ZM174.39 39.32C174.39 39.43 174.36 39.55 174.26 39.7C173.95 40.17 173.4 40.6 172.77 40.96C172.38 41.18 171.97 41.38 171.56 41.54C171.71 41.16 171.89 40.76 172.11 40.38C172.46 39.75 172.91 39.18 173.4 38.85C173.55 38.75 173.67 38.72 173.78 38.72C173.94 38.72 174.09 38.8 174.2 38.9C174.31 39.01 174.39 39.16 174.38 39.32H174.39Z" fill="url(#paint10_linear_48_2)"/>
<path d="M195.92 14.18C195.92 15.54 197.02 16.64 198.38 16.64C199.74 16.64 200.84 15.54 200.84 14.18C200.84 12.82 199.74 11.72 198.38 11.72C197.02 11.72 195.92 12.82 195.92 14.18Z" fill="url(#paint11_linear_48_2)"/>
<path d="M184.8 1.30997C184.8 0.709971 185.3 0.219971 185.9 0.219971C192.67 0.259971 199.15 2.92997 203.94 7.64997C208.73 12.37 211.45 18.77 211.51 25.46C211.51 26.06 211.03 26.56 210.43 26.56C209.83 26.56 209.33 26.08 209.33 25.48C209.28 19.38 206.8 13.53 202.41 9.20997C198.03 4.88997 192.09 2.44997 185.89 2.40997C185.29 2.40997 184.8 1.90997 184.8 1.30997Z" fill="url(#paint12_linear_48_2)"/>
<path d="M162.88 27.77C163.41 27.77 163.84 28.19 163.84 28.72C163.88 34.06 166.06 39.18 169.89 42.95C173.72 46.73 178.92 48.87 184.34 48.9C184.87 48.9 185.29 49.33 185.29 49.86C185.29 50.39 184.86 50.81 184.33 50.81C178.41 50.77 172.74 48.44 168.55 44.31C164.36 40.18 161.98 34.58 161.93 28.73C161.93 28.2 162.35 27.77 162.88 27.77Z" fill="url(#paint13_linear_48_2)"/>
<path d="M10.83 13.2C10.56 13.03 10.4 12.73 10.4 12.42C10.4 12.11 10.56 11.81 10.83 11.64C11.03 11.51 15.8 8.48001 19.53 9.22001C21.12 9.53001 22.19 10.82 22.19 12.42C22.19 14.02 21.12 15.31 19.53 15.62C19.12 15.7 18.71 15.74 18.28 15.74C14.81 15.74 11 13.32 10.82 13.2H10.83ZM19.17 11.04C17.23 10.66 14.77 11.65 13.24 12.42C14.89 13.24 17.34 14.15 19.17 13.79C20.02 13.62 20.33 12.97 20.33 12.42C20.33 11.87 20.03 11.21 19.17 11.05V11.04Z" fill="url(#paint14_linear_48_2)"/>
<path d="M23.8 12.48C23.06 11.84 22.61 10.95 22.53 9.97999C22.4 8.27999 23.67 6.76999 25.36 6.61999C26.08 6.54999 26.86 6.82999 27.41 7.35999C28.2 8.11999 28.47 9.12999 28.14 10.05C27.9 10.73 27.35 11.25 26.69 11.48C27.49 11.41 29.97 10.92 31.81 7.63999C32.76 5.97999 34.01 4.46999 35.13 3.61999L35.27 3.50999C36.92 2.17999 39.12 1.77999 41.15 2.43999C43.1 3.06999 44.51 4.54999 45.03 6.47999C45.07 6.62999 45.11 6.77999 45.14 6.92999C45.42 8.36999 45.05 9.89999 44.12 11.12C42.79 12.87 40.89 13.66 39.03 13.22C37.31 12.82 35.98 11.44 35.65 9.69999C35.46 8.69999 35.71 7.63999 36.34 6.79999C37.27 5.54999 38.62 4.98999 39.96 5.28999C41.2 5.56999 42.15 6.55999 42.39 7.80999C42.68 9.29999 41.7 10.75 40.22 11.04C39.72 11.14 39.23 10.81 39.13 10.3C39.03 9.78999 39.36 9.30999 39.87 9.20999C40.35 9.11999 40.66 8.64999 40.57 8.15999C40.47 7.63999 40.07 7.21999 39.55 7.09999C38.95 6.95999 38.33 7.25999 37.84 7.90999C37.52 8.33999 37.39 8.85999 37.49 9.34999C37.69 10.37 38.46 11.18 39.47 11.41C40.61 11.67 41.77 11.16 42.66 9.98999C43.28 9.17999 43.52 8.21999 43.33 7.27999C43.31 7.16999 43.28 7.06999 43.25 6.95999C42.9 5.63999 41.93 4.63999 40.59 4.19999C39.16 3.72999 37.61 4.00999 36.45 4.94999L36.29 5.06999C35.35 5.77999 34.26 7.11999 33.44 8.53999C30.83 13.19 26.97 13.33 26.43 13.33C26.35 13.33 26.27 13.33 26.18 13.33C25.31 13.33 24.48 13.02 23.81 12.45L23.8 12.48ZM25.52 8.46999C24.84 8.52999 24.33 9.13999 24.38 9.82999C24.42 10.31 24.64 10.75 25.01 11.07C25.13 11.17 25.26 11.26 25.39 11.32C25.24 11.17 25.14 10.97 25.13 10.74C25.09 10.23 25.47 9.77999 25.98 9.73999C26.16 9.72999 26.32 9.59999 26.38 9.42999C26.46 9.20999 26.36 8.94999 26.11 8.69999C25.96 8.55999 25.76 8.46999 25.57 8.46999C25.55 8.46999 25.53 8.46999 25.52 8.46999Z" fill="url(#paint15_linear_48_2)"/>
<path d="M35.26 21.34L35.14 21.25C33.99 20.38 32.74 18.87 31.8 17.2C29.96 13.91 27.48 13.44 26.68 13.37C27.35 13.59 27.89 14.11 28.13 14.8C28.46 15.73 28.19 16.73 27.4 17.49C26.85 18.02 26.09 18.3 25.35 18.23C23.65 18.08 22.38 16.57 22.52 14.87C22.6 13.89 23.05 13 23.79 12.37C24.52 11.74 25.46 11.43 26.41 11.5C26.97 11.48 30.81 11.65 33.41 16.29C34.23 17.72 35.32 19.05 36.28 19.78L36.42 19.89C37.58 20.82 39.13 21.1 40.56 20.64C41.9 20.2 42.87 19.2 43.22 17.88C43.25 17.78 43.27 17.67 43.29 17.56C43.47 16.62 43.23 15.66 42.62 14.85C41.73 13.68 40.57 13.17 39.43 13.43C38.42 13.67 37.65 14.47 37.45 15.49C37.36 15.98 37.48 16.5 37.8 16.93C38.29 17.58 38.91 17.87 39.51 17.74C40.03 17.62 40.43 17.21 40.53 16.68C40.62 16.2 40.31 15.73 39.83 15.63C39.33 15.53 39 15.04 39.09 14.54C39.19 14.03 39.68 13.7 40.18 13.8C41.67 14.09 42.64 15.54 42.35 17.03C42.11 18.28 41.15 19.27 39.92 19.55C38.59 19.86 37.24 19.29 36.3 18.04C35.67 17.19 35.42 16.14 35.61 15.14C35.95 13.4 37.28 12.02 38.99 11.62C40.85 11.19 42.75 11.97 44.08 13.72C45.01 14.94 45.38 16.47 45.1 17.91C45.07 18.06 45.03 18.21 45 18.36C44.48 20.3 43.06 21.77 41.12 22.41C40.47 22.62 39.81 22.72 39.15 22.72C37.74 22.72 36.36 22.25 35.23 21.34H35.26ZM25.01 13.78C24.64 14.09 24.42 14.53 24.38 15.02C24.33 15.71 24.84 16.32 25.52 16.38C25.74 16.4 25.95 16.31 26.11 16.15C26.36 15.91 26.46 15.65 26.38 15.42C26.32 15.25 26.16 15.12 25.98 15.11C25.47 15.07 25.08 14.62 25.13 14.11C25.15 13.88 25.25 13.68 25.39 13.53C25.25 13.6 25.13 13.68 25.01 13.78Z" fill="url(#paint16_linear_48_2)"/>
<path d="M201.13 205.09C200.96 205.36 200.66 205.52 200.35 205.52C200.04 205.52 199.74 205.36 199.57 205.09C199.44 204.89 196.41 200.12 197.15 196.39C197.46 194.8 198.75 193.73 200.35 193.73C201.95 193.73 203.24 194.8 203.55 196.39C203.63 196.8 203.67 197.21 203.67 197.64C203.67 201.11 201.25 204.92 201.13 205.1V205.09ZM198.97 196.75C198.59 198.69 199.58 201.15 200.35 202.68C201.17 201.03 202.08 198.58 201.72 196.75C201.55 195.9 200.9 195.59 200.35 195.59C199.8 195.59 199.14 195.89 198.98 196.75H198.97Z" fill="url(#paint17_linear_48_2)"/>
<path d="M200.41 192.12C199.77 192.86 198.88 193.31 197.91 193.39C196.21 193.52 194.7 192.25 194.55 190.56C194.48 189.84 194.76 189.06 195.29 188.51C196.05 187.72 197.06 187.45 197.98 187.78C198.66 188.02 199.18 188.57 199.41 189.23C199.34 188.43 198.85 185.95 195.57 184.11C193.91 183.16 192.4 181.91 191.55 180.79L191.44 180.65C190.11 179 189.71 176.8 190.37 174.77C191 172.82 192.48 171.41 194.41 170.89C194.56 170.85 194.71 170.81 194.86 170.78C196.3 170.5 197.83 170.87 199.05 171.8C200.8 173.13 201.59 175.03 201.15 176.89C200.75 178.61 199.37 179.94 197.63 180.27C196.63 180.46 195.57 180.21 194.73 179.58C193.48 178.65 192.92 177.3 193.22 175.96C193.5 174.72 194.49 173.77 195.74 173.53C197.23 173.24 198.68 174.22 198.97 175.7C199.07 176.2 198.74 176.69 198.23 176.79C197.72 176.89 197.24 176.56 197.14 176.05C197.05 175.57 196.58 175.26 196.09 175.35C195.57 175.45 195.15 175.85 195.03 176.37C194.89 176.97 195.19 177.59 195.84 178.08C196.27 178.4 196.79 178.53 197.28 178.43C198.3 178.23 199.11 177.46 199.34 176.45C199.6 175.31 199.09 174.15 197.92 173.26C197.11 172.64 196.15 172.4 195.21 172.59C195.1 172.61 195 172.64 194.89 172.67C193.57 173.02 192.57 173.99 192.13 175.33C191.66 176.76 191.94 178.31 192.88 179.47L193 179.63C193.71 180.57 195.05 181.66 196.47 182.48C201.12 185.09 201.26 188.95 201.26 189.49C201.26 189.57 201.26 189.65 201.26 189.74C201.26 190.61 200.95 191.44 200.38 192.11L200.41 192.12ZM196.4 190.4C196.46 191.08 197.07 191.59 197.76 191.54C198.24 191.5 198.68 191.28 199 190.91C199.1 190.79 199.19 190.66 199.25 190.53C199.1 190.68 198.9 190.78 198.67 190.79C198.16 190.83 197.71 190.45 197.67 189.94C197.66 189.76 197.53 189.6 197.36 189.54C197.14 189.46 196.88 189.56 196.63 189.81C196.49 189.96 196.4 190.16 196.4 190.35C196.4 190.37 196.4 190.39 196.4 190.4Z" fill="url(#paint18_linear_48_2)"/>
<path d="M209.28 180.66L209.19 180.78C208.32 181.93 206.81 183.18 205.14 184.12C201.85 185.96 201.38 188.44 201.31 189.24C201.53 188.57 202.05 188.03 202.74 187.79C203.67 187.46 204.67 187.73 205.43 188.52C205.96 189.07 206.24 189.83 206.17 190.57C206.02 192.27 204.51 193.54 202.81 193.4C201.83 193.32 200.94 192.87 200.31 192.13C199.68 191.4 199.37 190.46 199.44 189.51C199.42 188.95 199.59 185.11 204.23 182.51C205.66 181.69 206.99 180.6 207.72 179.64L207.83 179.5C208.76 178.34 209.04 176.79 208.58 175.36C208.14 174.02 207.14 173.05 205.82 172.7C205.72 172.67 205.61 172.65 205.5 172.63C204.56 172.45 203.6 172.69 202.79 173.3C201.62 174.19 201.11 175.35 201.37 176.49C201.6 177.5 202.41 178.27 203.43 178.47C203.92 178.56 204.44 178.44 204.87 178.12C205.52 177.63 205.81 177.01 205.68 176.41C205.56 175.89 205.15 175.49 204.62 175.39C204.14 175.3 203.67 175.61 203.57 176.09C203.47 176.59 202.98 176.92 202.48 176.83C201.97 176.73 201.64 176.24 201.74 175.74C202.03 174.25 203.48 173.28 204.97 173.57C206.22 173.81 207.21 174.77 207.49 176C207.8 177.33 207.23 178.68 205.98 179.62C205.13 180.25 204.08 180.5 203.08 180.31C201.34 179.97 199.96 178.64 199.56 176.93C199.13 175.07 199.91 173.17 201.66 171.84C202.88 170.91 204.41 170.54 205.85 170.82C206 170.85 206.15 170.89 206.3 170.92C208.24 171.44 209.71 172.86 210.35 174.8C210.56 175.45 210.66 176.11 210.66 176.77C210.66 178.18 210.19 179.56 209.28 180.69V180.66ZM201.72 190.91C202.03 191.28 202.47 191.5 202.96 191.54C203.65 191.59 204.26 191.08 204.32 190.4C204.34 190.18 204.25 189.97 204.09 189.81C203.85 189.56 203.59 189.46 203.36 189.54C203.19 189.6 203.06 189.76 203.05 189.94C203.01 190.45 202.56 190.84 202.05 190.79C201.82 190.77 201.62 190.67 201.47 190.53C201.54 190.67 201.62 190.79 201.72 190.91Z" fill="url(#paint19_linear_48_2)"/>
</g>
<defs>
<linearGradient id="paint0_linear_48_2" x1="952.31" y1="525.75" x2="-101.31" y2="-71.02" gradientUnits="userSpaceOnUse">
<stop stop-color="#EEDEBC"/>
<stop offset="0.06" stop-color="#DDC5A3"/>
<stop offset="0.14" stop-color="#C9A885"/>
<stop offset="0.26" stop-color="#9A7A5F"/>
<stop offset="0.36" stop-color="#C9A885"/>
<stop offset="0.49" stop-color="#EEDEBC"/>
<stop offset="0.54" stop-color="#DDC5A3"/>
<stop offset="0.61" stop-color="#C9A885"/>
<stop offset="0.72" stop-color="#9A7A5F"/>
<stop offset="0.84" stop-color="#C9A885"/>
<stop offset="1" stop-color="#EEDEBC"/>
</linearGradient>
<linearGradient id="paint1_linear_48_2" x1="964.93" y1="503.46" x2="-88.6801" y2="-93.3099" gradientUnits="userSpaceOnUse">
<stop stop-color="#EEDEBC"/>
<stop offset="0.06" stop-color="#DDC5A3"/>
<stop offset="0.14" stop-color="#C9A885"/>
<stop offset="0.26" stop-color="#9A7A5F"/>
<stop offset="0.36" stop-color="#C9A885"/>
<stop offset="0.49" stop-color="#EEDEBC"/>
<stop offset="0.54" stop-color="#DDC5A3"/>
<stop offset="0.61" stop-color="#C9A885"/>
<stop offset="0.72" stop-color="#9A7A5F"/>
<stop offset="0.84" stop-color="#C9A885"/>
<stop offset="1" stop-color="#EEDEBC"/>
</linearGradient>
<linearGradient id="paint2_linear_48_2" x1="946.604" y1="535.81" x2="-107.009" y2="-60.965" gradientUnits="userSpaceOnUse">
<stop stop-color="#EEDEBC"/>
<stop offset="0.06" stop-color="#DDC5A3"/>
<stop offset="0.14" stop-color="#C9A885"/>
<stop offset="0.26" stop-color="#9A7A5F"/>
<stop offset="0.36" stop-color="#C9A885"/>
<stop offset="0.49" stop-color="#EEDEBC"/>
<stop offset="0.54" stop-color="#DDC5A3"/>
<stop offset="0.61" stop-color="#C9A885"/>
<stop offset="0.72" stop-color="#9A7A5F"/>
<stop offset="0.84" stop-color="#C9A885"/>
<stop offset="1" stop-color="#EEDEBC"/>
</linearGradient>
<linearGradient id="paint3_linear_48_2" x1="972.49" y1="490.11" x2="-81.1301" y2="-106.65" gradientUnits="userSpaceOnUse">
<stop stop-color="#EEDEBC"/>
<stop offset="0.06" stop-color="#DDC5A3"/>
<stop offset="0.14" stop-color="#C9A885"/>
<stop offset="0.26" stop-color="#9A7A5F"/>
<stop offset="0.36" stop-color="#C9A885"/>
<stop offset="0.49" stop-color="#EEDEBC"/>
<stop offset="0.54" stop-color="#DDC5A3"/>
<stop offset="0.61" stop-color="#C9A885"/>
<stop offset="0.72" stop-color="#9A7A5F"/>
<stop offset="0.84" stop-color="#C9A885"/>
<stop offset="1" stop-color="#EEDEBC"/>
</linearGradient>
<linearGradient id="paint4_linear_48_2" x1="977.82" y1="480.7" x2="-75.7999" y2="-116.06" gradientUnits="userSpaceOnUse">
<stop stop-color="#EEDEBC"/>
<stop offset="0.06" stop-color="#DDC5A3"/>
<stop offset="0.14" stop-color="#C9A885"/>
<stop offset="0.26" stop-color="#9A7A5F"/>
<stop offset="0.36" stop-color="#C9A885"/>
<stop offset="0.49" stop-color="#EEDEBC"/>
<stop offset="0.54" stop-color="#DDC5A3"/>
<stop offset="0.61" stop-color="#C9A885"/>
<stop offset="0.72" stop-color="#9A7A5F"/>
<stop offset="0.84" stop-color="#C9A885"/>
<stop offset="1" stop-color="#EEDEBC"/>
</linearGradient>
<linearGradient id="paint5_linear_48_2" x1="983.64" y1="470.43" x2="-69.9801" y2="-126.34" gradientUnits="userSpaceOnUse">
<stop stop-color="#EEDEBC"/>
<stop offset="0.06" stop-color="#DDC5A3"/>
<stop offset="0.14" stop-color="#C9A885"/>
<stop offset="0.26" stop-color="#9A7A5F"/>
<stop offset="0.36" stop-color="#C9A885"/>
<stop offset="0.49" stop-color="#EEDEBC"/>
<stop offset="0.54" stop-color="#DDC5A3"/>
<stop offset="0.61" stop-color="#C9A885"/>
<stop offset="0.72" stop-color="#9A7A5F"/>
<stop offset="0.84" stop-color="#C9A885"/>
<stop offset="1" stop-color="#EEDEBC"/>
</linearGradient>
<linearGradient id="paint6_linear_48_2" x1="982.97" y1="471.61" x2="-70.65" y2="-125.15" gradientUnits="userSpaceOnUse">
<stop stop-color="#EEDEBC"/>
<stop offset="0.06" stop-color="#DDC5A3"/>
<stop offset="0.14" stop-color="#C9A885"/>
<stop offset="0.26" stop-color="#9A7A5F"/>
<stop offset="0.36" stop-color="#C9A885"/>
<stop offset="0.49" stop-color="#EEDEBC"/>
<stop offset="0.54" stop-color="#DDC5A3"/>
<stop offset="0.61" stop-color="#C9A885"/>
<stop offset="0.72" stop-color="#9A7A5F"/>
<stop offset="0.84" stop-color="#C9A885"/>
<stop offset="1" stop-color="#EEDEBC"/>
</linearGradient>
<linearGradient id="paint7_linear_48_2" x1="976.758" y1="482.58" x2="-76.8604" y2="-114.188" gradientUnits="userSpaceOnUse">
<stop stop-color="#EEDEBC"/>
<stop offset="0.06" stop-color="#DDC5A3"/>
<stop offset="0.14" stop-color="#C9A885"/>
<stop offset="0.26" stop-color="#9A7A5F"/>
<stop offset="0.36" stop-color="#C9A885"/>
<stop offset="0.49" stop-color="#EEDEBC"/>
<stop offset="0.54" stop-color="#DDC5A3"/>
<stop offset="0.61" stop-color="#C9A885"/>
<stop offset="0.72" stop-color="#9A7A5F"/>
<stop offset="0.84" stop-color="#C9A885"/>
<stop offset="1" stop-color="#EEDEBC"/>
</linearGradient>
<linearGradient id="paint8_linear_48_2" x1="977.02" y1="482.11" x2="-76.5901" y2="-114.66" gradientUnits="userSpaceOnUse">
<stop stop-color="#EEDEBC"/>
<stop offset="0.06" stop-color="#DDC5A3"/>
<stop offset="0.14" stop-color="#C9A885"/>
<stop offset="0.26" stop-color="#9A7A5F"/>
<stop offset="0.36" stop-color="#C9A885"/>
<stop offset="0.49" stop-color="#EEDEBC"/>
<stop offset="0.54" stop-color="#DDC5A3"/>
<stop offset="0.61" stop-color="#C9A885"/>
<stop offset="0.72" stop-color="#9A7A5F"/>
<stop offset="0.84" stop-color="#C9A885"/>
<stop offset="1" stop-color="#EEDEBC"/>
</linearGradient>
<linearGradient id="paint9_linear_48_2" x1="971.212" y1="492.37" x2="-82.4092" y2="-104.402" gradientUnits="userSpaceOnUse">
<stop stop-color="#EEDEBC"/>
<stop offset="0.06" stop-color="#DDC5A3"/>
<stop offset="0.14" stop-color="#C9A885"/>
<stop offset="0.26" stop-color="#9A7A5F"/>
<stop offset="0.36" stop-color="#C9A885"/>
<stop offset="0.49" stop-color="#EEDEBC"/>
<stop offset="0.54" stop-color="#DDC5A3"/>
<stop offset="0.61" stop-color="#C9A885"/>
<stop offset="0.72" stop-color="#9A7A5F"/>
<stop offset="0.84" stop-color="#C9A885"/>
<stop offset="1" stop-color="#EEDEBC"/>
</linearGradient>
<linearGradient id="paint10_linear_48_2" x1="970.951" y1="492.84" x2="-82.6695" y2="-103.932" gradientUnits="userSpaceOnUse">
<stop stop-color="#EEDEBC"/>
<stop offset="0.06" stop-color="#DDC5A3"/>
<stop offset="0.14" stop-color="#C9A885"/>
<stop offset="0.26" stop-color="#9A7A5F"/>
<stop offset="0.36" stop-color="#C9A885"/>
<stop offset="0.49" stop-color="#EEDEBC"/>
<stop offset="0.54" stop-color="#DDC5A3"/>
<stop offset="0.61" stop-color="#C9A885"/>
<stop offset="0.72" stop-color="#9A7A5F"/>
<stop offset="0.84" stop-color="#C9A885"/>
<stop offset="1" stop-color="#EEDEBC"/>
</linearGradient>
<linearGradient id="paint11_linear_48_2" x1="988.56" y1="461.74" x2="-65.05" y2="-135.03" gradientUnits="userSpaceOnUse">
<stop stop-color="#EEDEBC"/>
<stop offset="0.06" stop-color="#DDC5A3"/>
<stop offset="0.14" stop-color="#C9A885"/>
<stop offset="0.26" stop-color="#9A7A5F"/>
<stop offset="0.36" stop-color="#C9A885"/>
<stop offset="0.49" stop-color="#EEDEBC"/>
<stop offset="0.54" stop-color="#DDC5A3"/>
<stop offset="0.61" stop-color="#C9A885"/>
<stop offset="0.72" stop-color="#9A7A5F"/>
<stop offset="0.84" stop-color="#C9A885"/>
<stop offset="1" stop-color="#EEDEBC"/>
</linearGradient>
<linearGradient id="paint12_linear_48_2" x1="989.62" y1="459.86" x2="-63.9901" y2="-136.9" gradientUnits="userSpaceOnUse">
<stop stop-color="#EEDEBC"/>
<stop offset="0.06" stop-color="#DDC5A3"/>
<stop offset="0.14" stop-color="#C9A885"/>
<stop offset="0.26" stop-color="#9A7A5F"/>
<stop offset="0.36" stop-color="#C9A885"/>
<stop offset="0.49" stop-color="#EEDEBC"/>
<stop offset="0.54" stop-color="#DDC5A3"/>
<stop offset="0.61" stop-color="#C9A885"/>
<stop offset="0.72" stop-color="#9A7A5F"/>
<stop offset="0.84" stop-color="#C9A885"/>
<stop offset="1" stop-color="#EEDEBC"/>
</linearGradient>
<linearGradient id="paint13_linear_48_2" x1="971.09" y1="492.58" x2="-82.5201" y2="-104.19" gradientUnits="userSpaceOnUse">
<stop stop-color="#EEDEBC"/>
<stop offset="0.06" stop-color="#DDC5A3"/>
<stop offset="0.14" stop-color="#C9A885"/>
<stop offset="0.26" stop-color="#9A7A5F"/>
<stop offset="0.36" stop-color="#C9A885"/>
<stop offset="0.49" stop-color="#EEDEBC"/>
<stop offset="0.54" stop-color="#DDC5A3"/>
<stop offset="0.61" stop-color="#C9A885"/>
<stop offset="0.72" stop-color="#9A7A5F"/>
<stop offset="0.84" stop-color="#C9A885"/>
<stop offset="1" stop-color="#EEDEBC"/>
</linearGradient>
<linearGradient id="paint14_linear_48_2" x1="945.38" y1="537.97" x2="-108.24" y2="-58.7902" gradientUnits="userSpaceOnUse">
<stop stop-color="#EEDEBC"/>
<stop offset="0.06" stop-color="#DDC5A3"/>
<stop offset="0.14" stop-color="#C9A885"/>
<stop offset="0.26" stop-color="#9A7A5F"/>
<stop offset="0.36" stop-color="#C9A885"/>
<stop offset="0.49" stop-color="#EEDEBC"/>
<stop offset="0.54" stop-color="#DDC5A3"/>
<stop offset="0.61" stop-color="#C9A885"/>
<stop offset="0.72" stop-color="#9A7A5F"/>
<stop offset="0.84" stop-color="#C9A885"/>
<stop offset="1" stop-color="#EEDEBC"/>
</linearGradient>
<linearGradient id="paint15_linear_48_2" x1="951.16" y1="527.77" x2="-102.46" y2="-69" gradientUnits="userSpaceOnUse">
<stop stop-color="#EEDEBC"/>
<stop offset="0.06" stop-color="#DDC5A3"/>
<stop offset="0.14" stop-color="#C9A885"/>
<stop offset="0.26" stop-color="#9A7A5F"/>
<stop offset="0.36" stop-color="#C9A885"/>
<stop offset="0.49" stop-color="#EEDEBC"/>
<stop offset="0.54" stop-color="#DDC5A3"/>
<stop offset="0.61" stop-color="#C9A885"/>
<stop offset="0.72" stop-color="#9A7A5F"/>
<stop offset="0.84" stop-color="#C9A885"/>
<stop offset="1" stop-color="#EEDEBC"/>
</linearGradient>
<linearGradient id="paint16_linear_48_2" x1="948.1" y1="533.17" x2="-105.51" y2="-63.5899" gradientUnits="userSpaceOnUse">
<stop stop-color="#EEDEBC"/>
<stop offset="0.06" stop-color="#DDC5A3"/>
<stop offset="0.14" stop-color="#C9A885"/>
<stop offset="0.26" stop-color="#9A7A5F"/>
<stop offset="0.36" stop-color="#C9A885"/>
<stop offset="0.49" stop-color="#EEDEBC"/>
<stop offset="0.54" stop-color="#DDC5A3"/>
<stop offset="0.61" stop-color="#C9A885"/>
<stop offset="0.72" stop-color="#9A7A5F"/>
<stop offset="0.84" stop-color="#C9A885"/>
<stop offset="1" stop-color="#EEDEBC"/>
</linearGradient>
<linearGradient id="paint17_linear_48_2" x1="909.6" y1="601.16" x2="-144.02" y2="4.38998" gradientUnits="userSpaceOnUse">
<stop stop-color="#EEDEBC"/>
<stop offset="0.06" stop-color="#DDC5A3"/>
<stop offset="0.14" stop-color="#C9A885"/>
<stop offset="0.26" stop-color="#9A7A5F"/>
<stop offset="0.36" stop-color="#C9A885"/>
<stop offset="0.49" stop-color="#EEDEBC"/>
<stop offset="0.54" stop-color="#DDC5A3"/>
<stop offset="0.61" stop-color="#C9A885"/>
<stop offset="0.72" stop-color="#9A7A5F"/>
<stop offset="0.84" stop-color="#C9A885"/>
<stop offset="1" stop-color="#EEDEBC"/>
</linearGradient>
<linearGradient id="paint18_linear_48_2" x1="916.24" y1="589.42" x2="-137.37" y2="-7.34982" gradientUnits="userSpaceOnUse">
<stop stop-color="#EEDEBC"/>
<stop offset="0.06" stop-color="#DDC5A3"/>
<stop offset="0.14" stop-color="#C9A885"/>
<stop offset="0.26" stop-color="#9A7A5F"/>
<stop offset="0.36" stop-color="#C9A885"/>
<stop offset="0.49" stop-color="#EEDEBC"/>
<stop offset="0.54" stop-color="#DDC5A3"/>
<stop offset="0.61" stop-color="#C9A885"/>
<stop offset="0.72" stop-color="#9A7A5F"/>
<stop offset="0.84" stop-color="#C9A885"/>
<stop offset="1" stop-color="#EEDEBC"/>
</linearGradient>
<linearGradient id="paint19_linear_48_2" x1="917.99" y1="586.33" x2="-135.62" y2="-10.4405" gradientUnits="userSpaceOnUse">
<stop stop-color="#EEDEBC"/>
<stop offset="0.06" stop-color="#DDC5A3"/>
<stop offset="0.14" stop-color="#C9A885"/>
<stop offset="0.26" stop-color="#9A7A5F"/>
<stop offset="0.36" stop-color="#C9A885"/>
<stop offset="0.49" stop-color="#EEDEBC"/>
<stop offset="0.54" stop-color="#DDC5A3"/>
<stop offset="0.61" stop-color="#C9A885"/>
<stop offset="0.72" stop-color="#9A7A5F"/>
<stop offset="0.84" stop-color="#C9A885"/>
<stop offset="1" stop-color="#EEDEBC"/>
</linearGradient>
<clipPath id="clip0_48_2">
<rect width="212.54" height="212.54" fill="white"/>
</clipPath>
</defs>
</svg>
